<svg xmlns="http://www.w3.org/2000/svg"  viewBox="0 0 32 32" width="32px" height="32px"><path d="M1 21A1 1 0 101 23 1 1 0 101 21zM1 24A1 1 0 101 26 1 1 0 101 24zM1 18A1 1 0 101 20 1 1 0 101 18zM1 15A1 1 0 101 17 1 1 0 101 15zM1 12A1 1 0 101 14 1 1 0 101 12zM1 9A1 1 0 101 11 1 1 0 101 9zM1 6A1 1 0 101 8 1 1 0 101 6zM31 21A1 1 0 1031 23 1 1 0 1031 21zM31 24A1 1 0 1031 26 1 1 0 1031 24zM31 18A1 1 0 1031 20 1 1 0 1031 18zM31 15A1 1 0 1031 17 1 1 0 1031 15zM31 12A1 1 0 1031 14 1 1 0 1031 12zM31 9A1 1 0 1031 11 1 1 0 1031 9zM31 6A1 1 0 1031 8 1 1 0 1031 6zM25 6A1 1 0 1025 8 1 1 0 1025 6zM22 6A1 1 0 1022 8 1 1 0 1022 6zM19 6A1 1 0 1019 8 1 1 0 1019 6zM16 6A1 1 0 1016 8 1 1 0 1016 6zM13 6A1 1 0 1013 8 1 1 0 1013 6zM10 6A1 1 0 1010 8 1 1 0 1010 6zM7 6A1 1 0 107 8 1 1 0 107 6zM25 9A1 1 0 1025 11 1 1 0 1025 9zM22 9A1 1 0 1022 11 1 1 0 1022 9zM19 9A1 1 0 1019 11 1 1 0 1019 9zM10 9A1 1 0 1010 11 1 1 0 1010 9zM7 9A1 1 0 107 11 1 1 0 107 9zM4 6A1 1 0 104 8 1 1 0 104 6zM4 9A1 1 0 104 11 1 1 0 104 9zM4 12A1 1 0 104 14 1 1 0 104 12zM4 15A1 1 0 104 17 1 1 0 104 15zM4 18A1 1 0 104 20 1 1 0 104 18zM4 21A1 1 0 104 23 1 1 0 104 21zM28 6A1 1 0 1028 8 1 1 0 1028 6zM28 9A1 1 0 1028 11 1 1 0 1028 9zM28 12A1 1 0 1028 14 1 1 0 1028 12zM28 15A1 1 0 1028 17 1 1 0 1028 15zM28 18A1 1 0 1028 20 1 1 0 1028 18zM28 21A1 1 0 1028 23 1 1 0 1028 21zM10 12A1 1 0 1010 14 1 1 0 1010 12zM10 15A1 1 0 1010 17 1 1 0 1010 15zM7 12A1 1 0 107 14 1 1 0 107 12zM7 15A1 1 0 107 17 1 1 0 107 15zM10 18A1 1 0 1010 20 1 1 0 1010 18zM10 21A1 1 0 1010 23 1 1 0 1010 21zM7 18A1 1 0 107 20 1 1 0 107 18zM7 21A1 1 0 107 23 1 1 0 107 21zM10 24A1 1 0 1010 26 1 1 0 1010 24zM7 24A1 1 0 107 26 1 1 0 107 24zM16 24A1 1 0 1016 26 1 1 0 1016 24zM13 24A1 1 0 1013 26 1 1 0 1013 24zM22 12A1 1 0 1022 14 1 1 0 1022 12zM22 18A1 1 0 1022 20 1 1 0 1022 18zM22 21A1 1 0 1022 23 1 1 0 1022 21zM19 21A1 1 0 1019 23 1 1 0 1019 21zM22 24A1 1 0 1022 26 1 1 0 1022 24zM25 12A1 1 0 1025 14 1 1 0 1025 12zM25 15A1 1 0 1025 17 1 1 0 1025 15zM25 18A1 1 0 1025 20 1 1 0 1025 18zM25 21A1 1 0 1025 23 1 1 0 1025 21zM25 24A1 1 0 1025 26 1 1 0 1025 24zM19 24A1 1 0 1019 26 1 1 0 1019 24zM28 24A1 1 0 1028 26 1 1 0 1028 24zM4 24A1 1 0 104 26 1 1 0 104 24z"/></svg>